<svg aria-hidden="true" style="position: absolute; width: 0; height: 0; overflow: hidden;" version="1.1" xmlns="http://www.w3.org/2000/svg" xmlns:xlink="http://www.w3.org/1999/xlink">
<defs>
<symbol id="icon-sun" viewBox="0 0 32 32">
<path d="M15.897 0.844c-0.381 2.322-0.805 3.975-1.251 4.871-0.176 0.347-0.416 0.711-0.471 0.711-0.064 0-0.471-0.857-1.315-2.742-0.039-0.094-0.047-0.094-0.047-0.021-0.004 0.047 0.034 0.48 0.077 0.964 0.047 0.484 0.099 1.182 0.111 1.551 0.034 0.771 0.056 0.737-0.338 0.587-0.891-0.33-2.335-1.714-4.16-3.98-0.523-0.651-0.557-0.69-0.523-0.6 0.013 0.034 0.206 0.535 0.428 1.114 0.69 1.791 1.067 2.99 1.229 3.937 0.081 0.471 0.111 1.165 0.060 1.367l-0.026 0.094-0.201-0.111c-0.261-0.154-1.803-1.195-2.215-1.499-0.184-0.137-0.317-0.223-0.3-0.193 0.017 0.026 0.201 0.283 0.407 0.574 0.433 0.604 0.985 1.422 1.238 1.838 0.167 0.274 0.171 0.283 0.081 0.308-0.18 0.047-0.955 0.026-1.337-0.043-1.041-0.176-2.737-0.728-4.892-1.598-0.124-0.047-0.227-0.081-0.227-0.077 0 0.009 0.218 0.188 0.484 0.403 1.791 1.444 2.964 2.557 3.65 3.461 0.206 0.27 0.514 0.857 0.561 1.067l0.030 0.124-0.724-0.030c-0.398-0.013-1.118-0.064-1.602-0.111s-0.908-0.086-0.942-0.086c-0.034 0 0.227 0.129 0.578 0.283 0.818 0.356 2.249 1.050 2.249 1.092 0 0.064-0.613 0.437-0.947 0.578-1.015 0.428-2.677 0.831-4.871 1.182-0.334 0.051-0.608 0.107-0.608 0.12s0.398 0.086 0.891 0.167c2.116 0.347 3.667 0.728 4.584 1.131 0.48 0.21 0.968 0.527 0.925 0.595-0.039 0.060-1.559 0.793-2.296 1.11-0.296 0.128-0.535 0.24-0.527 0.248s0.206-0.009 0.437-0.034c0.737-0.081 2.018-0.176 2.442-0.176h0.407l-0.026 0.116c-0.231 0.955-1.671 2.485-4.382 4.657-0.171 0.137-0.313 0.257-0.313 0.261 0 0.009 0.12-0.034 0.266-0.094 0.711-0.287 2.557-0.964 3.054-1.118 1.384-0.437 2.553-0.63 3.093-0.506l0.137 0.030-0.171 0.283c-0.253 0.407-0.81 1.238-1.247 1.851-0.21 0.291-0.377 0.535-0.368 0.54 0.009 0.009 0.227-0.141 0.484-0.33 0.527-0.377 1.692-1.161 1.996-1.337l0.197-0.111 0.030 0.133c0.081 0.424-0.021 1.362-0.253 2.223-0.231 0.865-0.664 2.116-1.182 3.418-0.163 0.411-0.296 0.754-0.296 0.767s0.227-0.257 0.501-0.595c2.12-2.605 3.534-3.911 4.421-4.087l0.146-0.030-0.030 0.681c-0.017 0.373-0.060 0.968-0.090 1.324-0.034 0.351-0.073 0.788-0.086 0.964l-0.026 0.321 0.304-0.685c0.428-0.96 1.020-2.163 1.062-2.163 0.060 0 0.296 0.351 0.476 0.711 0.45 0.908 0.908 2.703 1.272 4.995 0.069 0.416 0.129 0.754 0.133 0.745 0.009-0.004 0.081-0.416 0.163-0.908 0.407-2.407 0.793-3.911 1.242-4.819 0.214-0.437 0.433-0.737 0.501-0.698 0.060 0.039 0.72 1.401 1.062 2.202 0.146 0.343 0.278 0.63 0.291 0.643s0.009-0.077-0.009-0.193c-0.073-0.54-0.197-2.189-0.197-2.63v-0.484l0.133 0.026c0.21 0.039 0.72 0.317 1.045 0.557 0.9 0.681 2.12 1.979 3.735 3.988 0.124 0.154 0.094 0.069-0.248-0.814-0.994-2.536-1.474-4.34-1.388-5.235 0.017-0.171 0.043-0.321 0.060-0.33 0.043-0.026 1.122 0.668 1.936 1.247 0.835 0.591 0.814 0.578 0.664 0.377-0.356-0.467-1.354-1.941-1.585-2.343l-0.116-0.201 0.099-0.021c0.403-0.081 0.908-0.051 1.671 0.103 0.852 0.176 2.455 0.703 4.018 1.324 0.411 0.163 0.75 0.296 0.758 0.291 0.004-0.004-0.248-0.214-0.557-0.463-1.568-1.264-3.007-2.622-3.538-3.337-0.296-0.398-0.604-0.985-0.604-1.152v-0.103l0.72 0.026c0.394 0.017 1.127 0.069 1.632 0.116 0.501 0.051 0.925 0.081 0.938 0.069 0.013-0.017 0-0.026-0.030-0.026-0.154 0-2.832-1.259-2.832-1.332 0-0.133 0.93-0.617 1.628-0.852 0.848-0.283 2.592-0.664 4.121-0.908 0.351-0.056 0.634-0.107 0.634-0.12s-0.39-0.086-0.865-0.167c-2.36-0.394-3.975-0.81-4.854-1.259-0.343-0.171-0.664-0.394-0.664-0.458 0-0.051 1.268-0.673 2.193-1.075 0.347-0.15 0.621-0.278 0.613-0.287-0.004-0.009-0.433 0.026-0.942 0.077-0.514 0.047-1.238 0.099-1.611 0.116l-0.681 0.026v-0.103c0-0.171 0.308-0.758 0.604-1.152 0.54-0.724 1.855-1.971 3.508-3.32 0.343-0.278 0.591-0.497 0.557-0.484-2.42 0.968-4.014 1.491-5.111 1.688-0.377 0.064-1.259 0.081-1.349 0.026-0.039-0.026 0.034-0.176 0.278-0.57 0.3-0.471 1.088-1.624 1.375-2.001 0.056-0.073 0.094-0.137 0.081-0.137-0.017 0-0.236 0.15-0.488 0.334-0.977 0.707-2.18 1.486-2.215 1.431-0.009-0.017-0.030-0.159-0.047-0.313-0.099-0.912 0.437-2.874 1.499-5.535 0.15-0.368 0.266-0.673 0.257-0.673-0.004 0-0.193 0.227-0.416 0.501-1.319 1.645-2.425 2.823-3.307 3.534-0.326 0.261-0.942 0.608-1.169 0.655l-0.141 0.030v-0.488c0-0.48 0.081-1.611 0.176-2.382 0.026-0.223 0.039-0.407 0.030-0.416s-0.137 0.266-0.287 0.613c-0.377 0.865-1.011 2.176-1.067 2.21-0.064 0.039-0.274-0.257-0.506-0.711-0.437-0.865-0.827-2.373-1.234-4.802-0.081-0.467-0.154-0.857-0.163-0.87-0.013-0.009-0.081 0.364-0.159 0.827zM17.328 7.604c3.71 0.565 6.567 3.47 7.115 7.218 0.090 0.591 0.086 1.726 0 2.33-0.27 1.851-1.101 3.508-2.42 4.824-3.264 3.251-8.499 3.299-11.819 0.107-0.874-0.835-1.486-1.726-1.949-2.806-0.93-2.189-0.887-4.674 0.111-6.863 0.621-1.358 1.743-2.66 3.033-3.517 1.067-0.707 2.519-1.221 3.83-1.358 0.505-0.051 1.559-0.017 2.099 0.064z"></path>
<path d="M15.336 8.443c-3.303 0.334-6.014 2.759-6.683 5.98-0.291 1.405-0.171 2.973 0.33 4.254 0.133 0.343 0.471 1.024 0.634 1.285 0.377 0.608 1.097 1.418 1.692 1.911 0.351 0.287 1.020 0.703 1.508 0.934 1.791 0.844 3.753 0.964 5.625 0.343 1.876-0.621 3.487-2.009 4.365-3.77 0.531-1.067 0.75-1.958 0.784-3.179 0.026-0.878-0.021-1.349-0.223-2.129-0.484-1.889-1.726-3.556-3.427-4.584-1.358-0.822-3.037-1.204-4.605-1.045z"></path>
</symbol>

<symbol id="icon-js" viewBox="0 0 28 32">
<path fill="#d4b830" style="fill: var(--color1, #d4b830)" d="M2.612 28.763l-2.613-28.762 28.147 0.011-2.591 28.729-11.505 3.249-11.439-3.227zM23.436 27.193l2.185-24.634h-11.527l0.088 27.17 9.254-2.536zM13.018 6.171h-2.799l-0.033 14.743-5.434-1.482 0.011 3.37 8.255 2.228v-18.86z"></path>
<path fill="#ebebeb" style="fill: var(--color2, #ebebeb)" opacity="0.9086976" d="M4.763 22.802l-0.011-3.37s3.469 0.977 5.434 1.482l0.033-14.732h2.799v18.849l-8.255-2.228z"></path>
<path fill="#fdd83c" style="fill: var(--color3, #fdd83c)" d="M14.094 2.548h11.527l-2.185 24.634-9.342 2.536v-27.17zM22.843 23.055l0.757-9.21-5.599 0.626v-4.918l5.972-0.022 0.241-3.359-9.013 0.044 0.121 12.229 5.445-0.933-0.077 2.722-5.489 1.46 0.055 3.337 7.586-1.976z"></path>
</symbol>
<symbol id="icon-nodejs" viewBox="0 0 32 32">
<path fill="#8cc84b" style="fill: var(--color1, #8cc84b)" d="M14.656 0.427c0.8-0.453 1.82-0.455 2.6 0l11.944 6.733c0.747 0.42 1.247 1.253 1.24 2.114v13.5c0.005 0.897-0.544 1.748-1.332 2.16l-11.88 6.702c-0.363 0.204-0.796 0.324-1.258 0.324-0.512 0-0.99-0.148-1.392-0.404l0.011 0.006-3.565-2.060c-0.243-0.145-0.516-0.26-0.688-0.495 0.152-0.204 0.422-0.23 0.642-0.32 0.496-0.158 0.95-0.4 1.406-0.656 0.115-0.080 0.256-0.050 0.366 0.022l3.040 1.758c0.217 0.125 0.437-0.040 0.623-0.145l11.665-6.583c0.144-0.070 0.224-0.222 0.212-0.38v-13.37c0.016-0.18-0.087-0.344-0.25-0.417l-11.85-6.673c-0.065-0.046-0.146-0.073-0.233-0.073s-0.167 0.027-0.233 0.073l0.001-0.001-11.833 6.687c-0.16 0.073-0.27 0.235-0.25 0.415v13.37c-0.014 0.158 0.070 0.307 0.215 0.375l3.162 1.785c0.594 0.32 1.323 0.5 1.977 0.265 0.572-0.22 0.971-0.765 0.971-1.404 0-0.002 0-0.004 0-0.006v0l0.003-13.29c-0.014-0.197 0.172-0.36 0.363-0.34h1.52c0.2-0.005 0.357 0.207 0.33 0.405l-0.003 13.374c0.001 1.188-0.487 2.48-1.586 3.063-1.354 0.7-3.028 0.553-4.366-0.12l-3.4-1.88c-0.8-0.4-1.337-1.264-1.332-2.16v-13.5c0.007-0.919 0.518-1.718 1.269-2.135l0.013-0.006 11.878-6.715zM18.1 9.785c1.727-0.1 3.576-0.066 5.13 0.785 1.203 0.652 1.87 2.020 1.892 3.358-0.034 0.18-0.222 0.28-0.394 0.267-0.5-0.001-1.002 0.007-1.504-0.003-0.213 0.008-0.336-0.188-0.363-0.376-0.144-0.64-0.493-1.273-1.095-1.582-0.924-0.463-1.996-0.44-3.004-0.43-0.736 0.040-1.527 0.103-2.15 0.535-0.48 0.328-0.624 1-0.453 1.522 0.16 0.383 0.603 0.506 0.964 0.62 2.082 0.544 4.287 0.5 6.33 1.207 0.845 0.292 1.672 0.86 1.962 1.745 0.378 1.186 0.213 2.604-0.63 3.556-0.684 0.784-1.68 1.2-2.675 1.442-1.323 0.295-2.695 0.302-4.038 0.17-1.263-0.144-2.577-0.476-3.552-1.336-0.834-0.724-1.24-1.852-1.2-2.94 0.010-0.184 0.193-0.312 0.37-0.297h1.5c0.202-0.014 0.35 0.16 0.36 0.35 0.093 0.6 0.322 1.25 0.854 1.6 1.026 0.662 2.313 0.616 3.487 0.635 0.973-0.043 2.065-0.056 2.86-0.7 0.42-0.367 0.543-0.98 0.43-1.508-0.123-0.446-0.6-0.653-1-0.8-2.055-0.65-4.285-0.414-6.32-1.15-0.826-0.292-1.625-0.844-1.942-1.693-0.443-1.2-0.24-2.687 0.693-3.607 0.9-0.915 2.22-1.268 3.47-1.394z"></path>
</symbol>
<symbol id="icon-React" viewBox="0 0 45 32">
<path fill="#61dafb" style="fill: var(--color2, #61dafb)" d="M35.817 15.938c0-1.747-2.188-3.403-5.542-4.429 0.774-3.419 0.43-6.139-1.086-7.010-0.349-0.204-0.758-0.301-1.204-0.301v1.199c0.247 0 0.446 0.048 0.613 0.14 0.731 0.419 1.048 2.016 0.801 4.069-0.059 0.505-0.156 1.037-0.274 1.58-1.054-0.258-2.204-0.457-3.413-0.586-0.726-0.994-1.478-1.898-2.236-2.688 1.752-1.629 3.397-2.521 4.515-2.521v-1.199c0 0 0 0 0 0-1.478 0-3.413 1.054-5.37 2.881-1.957-1.817-3.892-2.86-5.37-2.86v1.199c1.113 0 2.763 0.887 4.515 2.505-0.753 0.79-1.505 1.688-2.22 2.682-1.215 0.129-2.365 0.328-3.419 0.591-0.124-0.538-0.215-1.059-0.28-1.559-0.253-2.053 0.059-3.65 0.785-4.075 0.161-0.097 0.371-0.14 0.618-0.14v-1.199c0 0 0 0 0 0-0.452 0-0.86 0.097-1.215 0.301-1.511 0.871-1.849 3.585-1.070 6.993-3.344 1.032-5.521 2.682-5.521 4.424 0 1.747 2.188 3.403 5.542 4.429-0.774 3.419-0.43 6.139 1.086 7.010 0.349 0.204 0.758 0.301 1.209 0.301 1.478 0 3.413-1.054 5.37-2.881 1.957 1.817 3.892 2.86 5.37 2.86 0.452 0 0.86-0.097 1.215-0.301 1.511-0.871 1.849-3.585 1.070-6.993 3.333-1.027 5.51-2.682 5.51-4.424zM28.818 12.353c-0.199 0.693-0.446 1.408-0.726 2.123-0.22-0.43-0.452-0.86-0.704-1.29-0.247-0.43-0.511-0.849-0.774-1.258 0.763 0.113 1.5 0.253 2.204 0.425zM26.356 18.078c-0.419 0.726-0.849 1.414-1.295 2.053-0.801 0.070-1.613 0.108-2.43 0.108-0.812 0-1.623-0.038-2.419-0.102-0.446-0.64-0.882-1.322-1.301-2.043-0.409-0.704-0.779-1.419-1.118-2.139 0.333-0.72 0.71-1.441 1.113-2.145 0.419-0.726 0.849-1.414 1.295-2.053 0.801-0.070 1.613-0.107 2.43-0.107 0.812 0 1.623 0.038 2.419 0.102 0.446 0.64 0.882 1.322 1.301 2.043 0.409 0.704 0.779 1.419 1.118 2.139-0.339 0.72-0.71 1.441-1.113 2.145zM28.092 17.379c0.29 0.72 0.538 1.441 0.742 2.139-0.704 0.172-1.446 0.317-2.215 0.43 0.263-0.414 0.527-0.839 0.774-1.274 0.247-0.43 0.478-0.865 0.699-1.295zM22.641 23.114c-0.5-0.516-1-1.091-1.494-1.72 0.484 0.021 0.978 0.038 1.478 0.038 0.505 0 1.005-0.011 1.494-0.038-0.484 0.629-0.984 1.204-1.478 1.72zM18.642 19.948c-0.763-0.113-1.5-0.253-2.204-0.425 0.199-0.693 0.446-1.408 0.726-2.123 0.22 0.43 0.452 0.86 0.704 1.29s0.511 0.849 0.774 1.258zM22.614 8.762c0.5 0.516 1 1.091 1.494 1.72-0.484-0.021-0.978-0.038-1.478-0.038-0.505 0-1.005 0.011-1.494 0.038 0.484-0.629 0.984-1.204 1.478-1.72zM18.637 11.928c-0.263 0.414-0.527 0.839-0.774 1.274-0.247 0.43-0.478 0.86-0.699 1.29-0.29-0.72-0.538-1.441-0.742-2.139 0.704-0.167 1.446-0.312 2.215-0.425zM13.772 18.658c-1.903-0.812-3.134-1.876-3.134-2.72s1.231-1.914 3.134-2.72c0.462-0.199 0.968-0.376 1.489-0.543 0.306 1.054 0.71 2.15 1.209 3.274-0.495 1.118-0.892 2.209-1.193 3.258-0.532-0.167-1.037-0.349-1.505-0.548zM16.664 26.34c-0.731-0.419-1.048-2.016-0.801-4.069 0.059-0.505 0.156-1.037 0.274-1.58 1.054 0.258 2.204 0.457 3.413 0.586 0.726 0.994 1.478 1.898 2.236 2.688-1.752 1.629-3.397 2.521-4.515 2.521-0.242-0.005-0.446-0.054-0.607-0.145zM29.414 22.244c0.253 2.053-0.059 3.65-0.785 4.075-0.161 0.097-0.371 0.14-0.618 0.14-1.113 0-2.763-0.887-4.515-2.505 0.753-0.79 1.505-1.688 2.22-2.682 1.215-0.129 2.365-0.328 3.419-0.591 0.124 0.543 0.22 1.064 0.28 1.564zM31.484 18.658c-0.462 0.199-0.968 0.376-1.489 0.543-0.306-1.054-0.71-2.15-1.209-3.274 0.495-1.118 0.892-2.209 1.193-3.258 0.532 0.167 1.037 0.349 1.511 0.548 1.903 0.812 3.134 1.876 3.134 2.72-0.005 0.844-1.236 1.914-3.139 2.72z"></path>
<path fill="#61dafb" style="fill: var(--color2, #61dafb)" d="M17.244 4.214v0 0z"></path>
<path fill="#61dafb" style="fill: var(--color2, #61dafb)" d="M25.082 15.938c0 1.357-1.1 2.457-2.457 2.457s-2.457-1.1-2.457-2.457c0-1.357 1.1-2.457 2.457-2.457s2.457 1.1 2.457 2.457z"></path>
<path fill="#61dafb" style="fill: var(--color2, #61dafb)" d="M27.979 4.198v0 0z"></path>
</symbol>
<symbol id="icon-sass" viewBox="0 0 43 32">
<path fill="#cd6799" style="fill: var(--color8, #cd6799)" d="M36.738 18.393c-1.489 0.008-2.782 0.366-3.866 0.896-0.397-0.787-0.795-1.489-0.865-2.003-0.078-0.6-0.171-0.966-0.078-1.683s0.514-1.738 0.507-1.816-0.094-0.444-0.951-0.452c-0.857-0.008-1.598 0.164-1.683 0.39s-0.249 0.74-0.358 1.27c-0.148 0.779-1.715 3.562-2.611 5.019-0.288-0.569-0.538-1.068-0.592-1.465-0.078-0.6-0.171-0.966-0.078-1.683s0.514-1.738 0.507-1.816c-0.008-0.078-0.094-0.444-0.951-0.452s-1.598 0.164-1.683 0.39c-0.086 0.226-0.179 0.756-0.358 1.27s-2.26 5.159-2.806 6.359c-0.281 0.616-0.522 1.107-0.694 1.442 0 0 0 0 0 0s-0.008 0.023-0.031 0.062c-0.148 0.288-0.234 0.444-0.234 0.444s0 0 0 0.008c-0.117 0.21-0.242 0.405-0.304 0.405-0.047 0-0.133-0.561 0.016-1.325 0.312-1.613 1.052-4.123 1.044-4.208 0-0.047 0.14-0.483-0.483-0.709-0.608-0.226-0.826 0.148-0.881 0.148s-0.094 0.133-0.094 0.133 0.678-2.821-1.294-2.821c-1.231 0-2.93 1.348-3.772 2.564-0.53 0.288-1.66 0.904-2.868 1.567-0.46 0.257-0.935 0.514-1.379 0.756-0.031-0.031-0.062-0.070-0.094-0.101-2.385-2.548-6.796-4.349-6.609-7.77 0.070-1.247 0.499-4.52 8.472-8.495 6.562-3.234 11.784-2.338 12.688-0.351 1.294 2.837-2.798 8.105-9.578 8.869-2.587 0.288-3.944-0.709-4.286-1.083-0.358-0.39-0.413-0.413-0.546-0.335-0.218 0.117-0.078 0.468 0 0.67 0.203 0.53 1.037 1.465 2.447 1.925 1.247 0.405 4.279 0.631 7.949-0.787 4.107-1.59 7.318-6.009 6.375-9.711-0.943-3.756-7.178-4.996-13.077-2.899-3.507 1.247-7.31 3.211-10.046 5.767-3.25 3.039-3.764 5.681-3.554 6.788 0.756 3.928 6.172 6.484 8.339 8.378-0.109 0.062-0.21 0.117-0.296 0.164-1.083 0.538-5.214 2.697-6.243 4.98-1.169 2.587 0.187 4.442 1.083 4.692 2.782 0.772 5.642-0.616 7.178-2.907s1.348-5.268 0.639-6.632c-0.008-0.016-0.016-0.031-0.031-0.047 0.281-0.164 0.569-0.335 0.85-0.499 0.553-0.327 1.099-0.631 1.566-0.881-0.265 0.725-0.46 1.59-0.553 2.837-0.117 1.465 0.483 3.367 1.27 4.115 0.351 0.327 0.764 0.335 1.029 0.335 0.92 0 1.333-0.764 1.792-1.668 0.561-1.107 1.068-2.393 1.068-2.393s-0.631 3.476 1.083 3.476c0.623 0 1.255-0.811 1.535-1.224 0 0.008 0 0.008 0 0.008s0.016-0.023 0.047-0.078c0.062-0.101 0.101-0.164 0.101-0.164s0-0.008 0-0.016c0.249-0.436 0.811-1.426 1.644-3.071 1.075-2.12 2.112-4.77 2.112-4.77s0.094 0.647 0.413 1.722c0.187 0.631 0.577 1.325 0.888 1.995-0.249 0.351-0.405 0.546-0.405 0.546s0 0 0.008 0.008c-0.203 0.265-0.421 0.553-0.662 0.834-0.849 1.013-1.863 2.174-2.003 2.509-0.164 0.397-0.125 0.686 0.187 0.92 0.226 0.171 0.631 0.195 1.044 0.171 0.764-0.055 1.302-0.242 1.567-0.358 0.413-0.148 0.896-0.374 1.348-0.709 0.834-0.616 1.34-1.496 1.294-2.658-0.023-0.639-0.234-1.278-0.491-1.878 0.078-0.109 0.148-0.218 0.226-0.327 1.317-1.925 2.338-4.037 2.338-4.037s0.094 0.647 0.413 1.722c0.156 0.546 0.475 1.138 0.756 1.715-1.239 1.005-2.003 2.174-2.276 2.938-0.491 1.418-0.109 2.057 0.616 2.206 0.327 0.070 0.795-0.086 1.138-0.234 0.436-0.14 0.951-0.382 1.442-0.74 0.834-0.616 1.637-1.473 1.59-2.634-0.023-0.53-0.164-1.052-0.358-1.559 1.052-0.436 2.408-0.678 4.138-0.475 3.71 0.436 4.442 2.751 4.302 3.725s-0.92 1.504-1.177 1.668c-0.257 0.164-0.343 0.218-0.32 0.335 0.031 0.171 0.156 0.164 0.374 0.133 0.304-0.055 1.948-0.787 2.019-2.58 0.117-2.291-2.065-4.793-5.923-4.77zM8.121 28.041c-1.231 1.34-2.946 1.847-3.686 1.418-0.795-0.46-0.483-2.439 1.029-3.858 0.92-0.865 2.104-1.668 2.891-2.159 0.179-0.109 0.444-0.265 0.764-0.46 0.055-0.031 0.086-0.047 0.086-0.047v0c0.062-0.039 0.125-0.078 0.187-0.117 0.553 2.026 0.023 3.811-1.27 5.222zM17.083 21.946c-0.429 1.044-1.325 3.718-1.87 3.569-0.468-0.125-0.756-2.151-0.094-4.154 0.335-1.005 1.044-2.206 1.457-2.673 0.67-0.748 1.411-0.998 1.59-0.694 0.226 0.397-0.818 3.297-1.083 3.951zM24.479 25.485c-0.179 0.094-0.351 0.156-0.429 0.109-0.055-0.031 0.078-0.156 0.078-0.156s0.927-0.998 1.294-1.45c0.21-0.265 0.46-0.577 0.725-0.927 0 0.031 0 0.070 0 0.101 0 1.192-1.153 1.995-1.668 2.322zM30.184 24.183c-0.133-0.094-0.109-0.405 0.335-1.379 0.171-0.382 0.577-1.021 1.27-1.637 0.078 0.249 0.133 0.491 0.125 0.717-0.008 1.504-1.083 2.065-1.73 2.299z"></path>
</symbol>
</defs>
</svg>
