<svg aria-hidden="true" style="position: absolute; width: 0; height: 0; overflow: hidden;" version="1.1" xmlns="http://www.w3.org/2000/svg" xmlns:xlink="http://www.w3.org/1999/xlink">
<defs>
<symbol id="icon-sun-1" viewBox="0 0 32 32">
<path d="M15.897 0.844c-0.381 2.322-0.805 3.975-1.251 4.871-0.176 0.347-0.416 0.711-0.471 0.711-0.064 0-0.471-0.857-1.315-2.742-0.039-0.094-0.047-0.094-0.047-0.021-0.004 0.047 0.034 0.48 0.077 0.964 0.047 0.484 0.099 1.182 0.111 1.551 0.034 0.771 0.056 0.737-0.338 0.587-0.891-0.33-2.335-1.714-4.16-3.98-0.523-0.651-0.557-0.69-0.523-0.6 0.013 0.034 0.206 0.535 0.428 1.114 0.69 1.791 1.067 2.99 1.229 3.937 0.081 0.471 0.111 1.165 0.060 1.367l-0.026 0.094-0.201-0.111c-0.261-0.154-1.803-1.195-2.215-1.499-0.184-0.137-0.317-0.223-0.3-0.193 0.017 0.026 0.201 0.283 0.407 0.574 0.433 0.604 0.985 1.422 1.238 1.838 0.167 0.274 0.171 0.283 0.081 0.308-0.18 0.047-0.955 0.026-1.337-0.043-1.041-0.176-2.737-0.728-4.892-1.598-0.124-0.047-0.227-0.081-0.227-0.077 0 0.009 0.218 0.188 0.484 0.403 1.791 1.444 2.964 2.557 3.65 3.461 0.206 0.27 0.514 0.857 0.561 1.067l0.030 0.124-0.724-0.030c-0.398-0.013-1.118-0.064-1.602-0.111s-0.908-0.086-0.942-0.086c-0.034 0 0.227 0.129 0.578 0.283 0.818 0.356 2.249 1.050 2.249 1.092 0 0.064-0.613 0.437-0.947 0.578-1.015 0.428-2.677 0.831-4.871 1.182-0.334 0.051-0.608 0.107-0.608 0.12s0.398 0.086 0.891 0.167c2.116 0.347 3.667 0.728 4.584 1.131 0.48 0.21 0.968 0.527 0.925 0.595-0.039 0.060-1.559 0.793-2.296 1.11-0.296 0.128-0.535 0.24-0.527 0.248s0.206-0.009 0.437-0.034c0.737-0.081 2.018-0.176 2.442-0.176h0.407l-0.026 0.116c-0.231 0.955-1.671 2.485-4.382 4.657-0.171 0.137-0.313 0.257-0.313 0.261 0 0.009 0.12-0.034 0.266-0.094 0.711-0.287 2.557-0.964 3.054-1.118 1.384-0.437 2.553-0.63 3.093-0.506l0.137 0.030-0.171 0.283c-0.253 0.407-0.81 1.238-1.247 1.851-0.21 0.291-0.377 0.535-0.368 0.54 0.009 0.009 0.227-0.141 0.484-0.33 0.527-0.377 1.692-1.161 1.996-1.337l0.197-0.111 0.030 0.133c0.081 0.424-0.021 1.362-0.253 2.223-0.231 0.865-0.664 2.116-1.182 3.418-0.163 0.411-0.296 0.754-0.296 0.767s0.227-0.257 0.501-0.595c2.12-2.605 3.534-3.911 4.421-4.087l0.146-0.030-0.030 0.681c-0.017 0.373-0.060 0.968-0.090 1.324-0.034 0.351-0.073 0.788-0.086 0.964l-0.026 0.321 0.304-0.685c0.428-0.96 1.020-2.163 1.062-2.163 0.060 0 0.296 0.351 0.476 0.711 0.45 0.908 0.908 2.703 1.272 4.995 0.069 0.416 0.129 0.754 0.133 0.745 0.009-0.004 0.081-0.416 0.163-0.908 0.407-2.407 0.793-3.911 1.242-4.819 0.214-0.437 0.433-0.737 0.501-0.698 0.060 0.039 0.72 1.401 1.062 2.202 0.146 0.343 0.278 0.63 0.291 0.643s0.009-0.077-0.009-0.193c-0.073-0.54-0.197-2.189-0.197-2.63v-0.484l0.133 0.026c0.21 0.039 0.72 0.317 1.045 0.557 0.9 0.681 2.12 1.979 3.735 3.988 0.124 0.154 0.094 0.069-0.248-0.814-0.994-2.536-1.474-4.34-1.388-5.235 0.017-0.171 0.043-0.321 0.060-0.33 0.043-0.026 1.122 0.668 1.936 1.247 0.835 0.591 0.814 0.578 0.664 0.377-0.356-0.467-1.354-1.941-1.585-2.343l-0.116-0.201 0.099-0.021c0.403-0.081 0.908-0.051 1.671 0.103 0.852 0.176 2.455 0.703 4.018 1.324 0.411 0.163 0.75 0.296 0.758 0.291 0.004-0.004-0.248-0.214-0.557-0.463-1.568-1.264-3.007-2.622-3.538-3.337-0.296-0.398-0.604-0.985-0.604-1.152v-0.103l0.72 0.026c0.394 0.017 1.127 0.069 1.632 0.116 0.501 0.051 0.925 0.081 0.938 0.069 0.013-0.017 0-0.026-0.030-0.026-0.154 0-2.832-1.259-2.832-1.332 0-0.133 0.93-0.617 1.628-0.852 0.848-0.283 2.592-0.664 4.121-0.908 0.351-0.056 0.634-0.107 0.634-0.12s-0.39-0.086-0.865-0.167c-2.36-0.394-3.975-0.81-4.854-1.259-0.343-0.171-0.664-0.394-0.664-0.458 0-0.051 1.268-0.673 2.193-1.075 0.347-0.15 0.621-0.278 0.613-0.287-0.004-0.009-0.433 0.026-0.942 0.077-0.514 0.047-1.238 0.099-1.611 0.116l-0.681 0.026v-0.103c0-0.171 0.308-0.758 0.604-1.152 0.54-0.724 1.855-1.971 3.508-3.32 0.343-0.278 0.591-0.497 0.557-0.484-2.42 0.968-4.014 1.491-5.111 1.688-0.377 0.064-1.259 0.081-1.349 0.026-0.039-0.026 0.034-0.176 0.278-0.57 0.3-0.471 1.088-1.624 1.375-2.001 0.056-0.073 0.094-0.137 0.081-0.137-0.017 0-0.236 0.15-0.488 0.334-0.977 0.707-2.18 1.486-2.215 1.431-0.009-0.017-0.030-0.159-0.047-0.313-0.099-0.912 0.437-2.874 1.499-5.535 0.15-0.368 0.266-0.673 0.257-0.673-0.004 0-0.193 0.227-0.416 0.501-1.319 1.645-2.425 2.823-3.307 3.534-0.326 0.261-0.942 0.608-1.169 0.655l-0.141 0.030v-0.488c0-0.48 0.081-1.611 0.176-2.382 0.026-0.223 0.039-0.407 0.030-0.416s-0.137 0.266-0.287 0.613c-0.377 0.865-1.011 2.176-1.067 2.21-0.064 0.039-0.274-0.257-0.506-0.711-0.437-0.865-0.827-2.373-1.234-4.802-0.081-0.467-0.154-0.857-0.163-0.87-0.013-0.009-0.081 0.364-0.159 0.827zM17.328 7.604c3.71 0.565 6.567 3.47 7.115 7.218 0.090 0.591 0.086 1.726 0 2.33-0.27 1.851-1.101 3.508-2.42 4.824-3.264 3.251-8.499 3.299-11.819 0.107-0.874-0.835-1.486-1.726-1.949-2.806-0.93-2.189-0.887-4.674 0.111-6.863 0.621-1.358 1.743-2.66 3.033-3.517 1.067-0.707 2.519-1.221 3.83-1.358 0.505-0.051 1.559-0.017 2.099 0.064z"></path>
<path d="M15.336 8.443c-3.303 0.334-6.014 2.759-6.683 5.98-0.291 1.405-0.171 2.973 0.33 4.254 0.133 0.343 0.471 1.024 0.634 1.285 0.377 0.608 1.097 1.418 1.692 1.911 0.351 0.287 1.020 0.703 1.508 0.934 1.791 0.844 3.753 0.964 5.625 0.343 1.876-0.621 3.487-2.009 4.365-3.77 0.531-1.067 0.75-1.958 0.784-3.179 0.026-0.878-0.021-1.349-0.223-2.129-0.484-1.889-1.726-3.556-3.427-4.584-1.358-0.822-3.037-1.204-4.605-1.045z"></path>
</symbol>
</defs>
</svg>
